<svg height="512pt" viewBox="0 0 512 512" width="512pt" xmlns="http://www.w3.org/2000/svg"><path d="m512 256c0 141.386719-114.613281 256-256 256s-256-114.613281-256-256 114.613281-256 256-256 256 114.613281 256 256zm0 0" fill="#0069a3"/><path d="m185.472656 405.53125h141.054688v62.691406h-141.054688zm0 0" fill="#87a8e6"/><path d="m485.609375 90.9375v278.390625c-9.625 19.46875-21.652344 37.53125-35.695313 53.800781-1.628906.199219-3.28125.304688-4.960937.304688h-377.898437c-1.683594 0-3.332032-.105469-4.964844-.304688-14.054688-16.277344-26.078125-34.332031-35.691406-53.800781v-278.390625c0-22.457031 18.199218-40.65625 40.65625-40.65625h377.898437c22.453125 0 40.65625 18.199219 40.65625 40.65625zm0 0" fill="#d4e4ff"/><path d="m464.710938 90.9375v255.265625c0 10.898437-8.871094 19.761719-19.757813 19.761719h-377.898437c-10.898438 0-19.757813-8.863282-19.757813-19.761719v-255.265625c0-10.898438 8.859375-19.761719 19.757813-19.761719h377.898437c10.886719 0 19.757813 8.863281 19.757813 19.761719zm0 0" fill="#244477"/><path d="m372.988281 481.824219c0 .667969-.019531 1.324219-.070312 1.984375-35.046875 18.023437-74.796875 28.191406-116.914063 28.191406-42.132812 0-81.878906-10.179688-116.925781-28.203125-.050781-.65625-.070313-1.316406-.070313-1.972656 0-8.328125 3.375-15.875 8.839844-21.339844s13.007813-8.839844 21.335938-8.839844h173.628906c16.667969 0 30.175781 13.511719 30.175781 30.179688zm0 0" fill="#d4e4ff"/><path d="m163.632812 213.636719h-77.339843c-5.960938 0-10.796875-4.835938-10.796875-10.796875 0-5.964844 4.835937-10.796875 10.796875-10.796875h77.339843c5.964844 0 10.796876 4.832031 10.796876 10.796875 0 5.960937-4.832032 10.796875-10.796876 10.796875zm0 0" fill="#fff"/><path d="m163.632812 255.9375h-77.339843c-5.960938 0-10.796875-4.835938-10.796875-10.796875 0-5.964844 4.835937-10.796875 10.796875-10.796875h77.339843c5.964844 0 10.796876 4.832031 10.796876 10.796875 0 5.960937-4.832032 10.796875-10.796876 10.796875zm0 0" fill="#0069a3"/><path d="m163.632812 298.238281h-77.339843c-5.960938 0-10.796875-4.835937-10.796875-10.796875 0-5.964844 4.835937-10.796875 10.796875-10.796875h77.339843c5.964844 0 10.796876 4.832031 10.796876 10.796875 0 5.960938-4.832032 10.796875-10.796876 10.796875zm0 0" fill="#fcd971"/><path d="m163.632812 340.539062h-77.339843c-5.960938 0-10.796875-4.835937-10.796875-10.796874 0-5.964844 4.835937-10.796876 10.796875-10.796876h77.339843c5.964844 0 10.796876 4.832032 10.796876 10.796876 0 5.960937-4.832032 10.796874-10.796876 10.796874zm0 0" fill="#0069a3"/><path d="m425.972656 213.636719h-198.191406c-5.960938 0-10.796875-4.835938-10.796875-10.796875 0-5.964844 4.835937-10.796875 10.796875-10.796875h198.191406c5.964844 0 10.796875 4.832031 10.796875 10.796875 0 5.960937-4.832031 10.796875-10.796875 10.796875zm0 0" fill="#228bd1"/><path d="m425.972656 255.9375h-198.191406c-5.960938 0-10.796875-4.835938-10.796875-10.796875 0-5.964844 4.835937-10.796875 10.796875-10.796875h198.191406c5.964844 0 10.796875 4.832031 10.796875 10.796875 0 5.960937-4.832031 10.796875-10.796875 10.796875zm0 0" fill="#ff4079"/><path d="m425.972656 298.238281h-198.191406c-5.960938 0-10.796875-4.835937-10.796875-10.796875 0-5.964844 4.835937-10.796875 10.796875-10.796875h198.191406c5.964844 0 10.796875 4.832031 10.796875 10.796875 0 5.960938-4.832031 10.796875-10.796875 10.796875zm0 0" fill="#fff"/><path d="m425.972656 340.539062h-198.191406c-5.960938 0-10.796875-4.835937-10.796875-10.796874 0-5.964844 4.835937-10.796876 10.796875-10.796876h198.191406c5.964844 0 10.796875 4.832032 10.796875 10.796876 0 5.960937-4.832031 10.796874-10.796875 10.796874zm0 0" fill="#fcd971"/><g fill="#fff"><path d="m181.308594 136.527344 30.339844-19.707032c.597656-.480468 1.433593-.597656 2.269531-.597656 3.585937 0 8.125 3.820313 8.125 8.71875 0 2.03125-.835938 3.824219-2.152344 4.660156l-21.023437 13.617188 21.023437 13.617188c1.316406.835937 2.152344 2.628906 2.152344 4.660156 0 4.898437-4.539063 8.722656-8.125 8.722656-.835938 0-1.671875-.121094-2.269531-.597656l-30.339844-19.710938c-2.75-1.792968-3.703125-4.660156-3.703125-6.691406s.953125-4.898438 3.703125-6.691406zm0 0"/><path d="m282.960938 90.417969c0 .71875-.117188 1.554687-.476563 2.269531l-42.046875 86.128906c-.835938 1.792969-3.105469 2.984375-5.378906 2.984375-4.058594 0-6.6875-3.34375-6.6875-6.328125 0-.71875.238281-1.554687.597656-2.269531l41.929688-86.128906c.957031-2.03125 2.867187-2.988281 5.015624-2.988281 3.34375 0 7.046876 2.511718 7.046876 6.332031zm0 0"/><path d="m330.027344 149.90625-30.34375 19.710938c-.597656.480468-1.433594.597656-2.269532.597656-3.582031 0-8.121093-3.820313-8.121093-8.71875 0-2.03125.835937-3.824219 2.148437-4.660156l21.027344-13.617188-21.027344-13.617188c-1.3125-.835937-2.148437-2.628906-2.148437-4.660156 0-4.898437 4.539062-8.722656 8.121093-8.722656.835938 0 1.671876.121094 2.269532.597656l30.34375 19.710938c2.746094 1.792968 3.703125 4.660156 3.703125 6.691406 0 2.027344-.957031 4.898438-3.703125 6.6875zm0 0"/></g></svg>