<svg id="Capa_1" enable-background="new 0 0 512 512" height="512" viewBox="0 0 512 512" width="512" xmlns="http://www.w3.org/2000/svg"><g><path d="m512 256c0 141.385-114.615 256-256 256-68.645 0-130.979-27.018-176.949-71-1.921-1.838 5.515-5.72 3.652-7.617-13.473-13.714-25.413-28.939-35.543-45.397-.617-1.002-10.556.006-11.159-1.005-22.865-38.32-36.001-83.116-36.001-130.981 0-141.385 114.615-256 256-256s256 114.615 256 256z" fill="#6dc54a"/><path d="m473 227.5c0 115.98-94.02 210-210 210s-210-94.02-210-210 94.02-210 210-210 210 94.02 210 210z" fill="#82cd64"/><path d="m476 121v265.981c-11.882 19.915-26.392 38.081-43.051 54.019h-353.898c-6.709-6.419-13.07-13.199-19.051-20.31-.831-.988-1.654-11.601-2.47-12.602-2.585-3.169-5.096-6.401-7.53-9.694v-277.394c0-5.523 4.477-10 10-10h406c.352 0 7.162 5.243 10 10z" fill="#fff5f5"/><path d="m70 111c-5.523 0-10 4.477-10 10v299.69c-8.869-10.544-16.903-21.815-24-33.709v-265.981c2.838-4.757 9.648-10 10-10z" fill="#e9f3fe"/><path d="m476 81v40h-286l-10.064-7.362h-89.872l-10.064 7.362h-20.117c-5.458 0-9.883-4.425-9.883-9.883v-23.277c0-9.3 7.54-16.84 16.84-16.84h399.16c5.523 0 10 4.477 10 10z" fill="#203e76"/><path d="m70 71c-5.523 0-10 4.477-10 10v40h-24v-40c0-5.523 4.477-10 10-10z" fill="#19305c"/><path d="m190 101v20h-110v-20c0-5.523 4.477-10 10-10h90c5.523 0 10 4.477 10 10z" fill="#ffc14f"/><path d="m450 96c0 5.523-4.477 10-10 10s-10-4.477-10-10 4.477-10 10-10 10 4.477 10 10zm-50-10c-5.523 0-10 4.477-10 10s4.477 10 10 10 10-4.477 10-10-4.477-10-10-10zm-40 0c-5.523 0-10 4.477-10 10s4.477 10 10 10 10-4.477 10-10-4.477-10-10-10z" fill="#6990d7"/><path d="m208 410h-80c-2.761 0-5-2.239-5-5v-250c0-2.761 2.239-5 5-5h80c2.761 0 5 2.239 5 5v250c0 2.761-2.239 5-5 5zm185-5v-250c0-2.761-2.239-5-5-5h-80c-2.761 0-5 2.239-5 5v250c0 2.761 2.239 5 5 5h80c2.761 0 5-2.239 5-5z" fill="#c8e2fd"/><path d="m190.5 180h-45c-4.142 0-7.5-3.358-7.5-7.5 0-4.142 3.358-7.5 7.5-7.5h45c4.142 0 7.5 3.358 7.5 7.5 0 4.142-3.358 7.5-7.5 7.5zm7.5 22.5c0-4.142-3.358-7.5-7.5-7.5h-45c-4.142 0-7.5 3.358-7.5 7.5 0 4.142 3.358 7.5 7.5 7.5h45c4.142 0 7.5-3.358 7.5-7.5zm0 30c0-4.142-3.358-7.5-7.5-7.5h-45c-4.142 0-7.5 3.358-7.5 7.5 0 4.142 3.358 7.5 7.5 7.5h45c4.142 0 7.5-3.358 7.5-7.5zm0 30c0-4.142-3.358-7.5-7.5-7.5h-45c-4.142 0-7.5 3.358-7.5 7.5 0 4.142 3.358 7.5 7.5 7.5h45c4.142 0 7.5-3.358 7.5-7.5zm0 30c0-4.142-3.358-7.5-7.5-7.5h-45c-4.142 0-7.5 3.358-7.5 7.5 0 4.142 3.358 7.5 7.5 7.5h45c4.142 0 7.5-3.358 7.5-7.5zm0 30c0-4.142-3.358-7.5-7.5-7.5h-45c-4.142 0-7.5 3.358-7.5 7.5 0 4.142 3.358 7.5 7.5 7.5h45c4.142 0 7.5-3.358 7.5-7.5zm0 30c0-4.142-3.358-7.5-7.5-7.5h-45c-4.142 0-7.5 3.358-7.5 7.5 0 4.142 3.358 7.5 7.5 7.5h45c4.142 0 7.5-3.358 7.5-7.5zm0 30c0-4.142-3.358-7.5-7.5-7.5h-45c-4.142 0-7.5 3.358-7.5 7.5 0 4.142 3.358 7.5 7.5 7.5h45c4.142 0 7.5-3.358 7.5-7.5zm180-210c0-4.142-3.358-7.5-7.5-7.5h-45c-4.142 0-7.5 3.358-7.5 7.5 0 4.142 3.358 7.5 7.5 7.5h45c4.142 0 7.5-3.358 7.5-7.5zm0 30c0-4.142-3.358-7.5-7.5-7.5h-45c-4.142 0-7.5 3.358-7.5 7.5 0 4.142 3.358 7.5 7.5 7.5h45c4.142 0 7.5-3.358 7.5-7.5zm0 30c0-4.142-3.358-7.5-7.5-7.5h-45c-4.142 0-7.5 3.358-7.5 7.5 0 4.142 3.358 7.5 7.5 7.5h45c4.142 0 7.5-3.358 7.5-7.5zm0 30c0-4.142-3.358-7.5-7.5-7.5h-45c-4.142 0-7.5 3.358-7.5 7.5 0 4.142 3.358 7.5 7.5 7.5h45c4.142 0 7.5-3.358 7.5-7.5zm0 30c0-4.142-3.358-7.5-7.5-7.5h-45c-4.142 0-7.5 3.358-7.5 7.5 0 4.142 3.358 7.5 7.5 7.5h45c4.142 0 7.5-3.358 7.5-7.5zm0 30c0-4.142-3.358-7.5-7.5-7.5h-45c-4.142 0-7.5 3.358-7.5 7.5 0 4.142 3.358 7.5 7.5 7.5h45c4.142 0 7.5-3.358 7.5-7.5zm0 30c0-4.142-3.358-7.5-7.5-7.5h-45c-4.142 0-7.5 3.358-7.5 7.5 0 4.142 3.358 7.5 7.5 7.5h45c4.142 0 7.5-3.358 7.5-7.5zm0 30c0-4.142-3.358-7.5-7.5-7.5h-45c-4.142 0-7.5 3.358-7.5 7.5 0 4.142 3.358 7.5 7.5 7.5h45c4.142 0 7.5-3.358 7.5-7.5z" fill="#91aee2"/><path d="m103 202.5c0 4.142-3.358 7.5-7.5 7.5h-18.872c-4.142 0-7.5-3.358-7.5-7.5s3.358-7.5 7.5-7.5h18.872c4.142 0 7.5 3.358 7.5 7.5z" fill="#4172cc"/><path d="m95.5 180h-18.872c-4.142 0-7.5-3.358-7.5-7.5 0-4.142 3.358-7.5 7.5-7.5h18.872c4.142 0 7.5 3.358 7.5 7.5 0 4.142-3.358 7.5-7.5 7.5zm7.5 52.5c0-4.142-3.358-7.5-7.5-7.5h-18.872c-4.142 0-7.5 3.358-7.5 7.5 0 4.142 3.358 7.5 7.5 7.5h18.872c4.142 0 7.5-3.358 7.5-7.5zm0 30c0-4.142-3.358-7.5-7.5-7.5h-18.872c-4.142 0-7.5 3.358-7.5 7.5 0 4.142 3.358 7.5 7.5 7.5h18.872c4.142 0 7.5-3.358 7.5-7.5zm0 30c0-4.142-3.358-7.5-7.5-7.5h-18.872c-4.142 0-7.5 3.358-7.5 7.5 0 4.142 3.358 7.5 7.5 7.5h18.872c4.142 0 7.5-3.358 7.5-7.5zm0 30c0-4.142-3.358-7.5-7.5-7.5h-18.872c-4.142 0-7.5 3.358-7.5 7.5 0 4.142 3.358 7.5 7.5 7.5h18.872c4.142 0 7.5-3.358 7.5-7.5zm0 30c0-4.142-3.358-7.5-7.5-7.5h-18.872c-4.142 0-7.5 3.358-7.5 7.5 0 4.142 3.358 7.5 7.5 7.5h18.872c4.142 0 7.5-3.358 7.5-7.5zm0 30c0-4.142-3.358-7.5-7.5-7.5h-18.872c-4.142 0-7.5 3.358-7.5 7.5 0 4.142 3.358 7.5 7.5 7.5h18.872c4.142 0 7.5-3.358 7.5-7.5zm164.436-202.5h-18.872c-4.142 0-7.5-3.358-7.5-7.5 0-4.142 3.358-7.5 7.5-7.5h18.872c4.142 0 7.5 3.358 7.5 7.5 0 4.142-3.358 7.5-7.5 7.5zm7.5 22.5c0-4.142-3.358-7.5-7.5-7.5h-18.872c-4.142 0-7.5 3.358-7.5 7.5 0 4.142 3.358 7.5 7.5 7.5h18.872c4.142 0 7.5-3.358 7.5-7.5zm0 30c0-4.142-3.358-7.5-7.5-7.5h-18.872c-4.142 0-7.5 3.358-7.5 7.5 0 4.142 3.358 7.5 7.5 7.5h18.872c4.142 0 7.5-3.358 7.5-7.5zm0 30c0-4.142-3.358-7.5-7.5-7.5h-18.872c-4.142 0-7.5 3.358-7.5 7.5 0 4.142 3.358 7.5 7.5 7.5h18.872c4.142 0 7.5-3.358 7.5-7.5zm0 30c0-4.142-3.358-7.5-7.5-7.5h-18.872c-4.142 0-7.5 3.358-7.5 7.5 0 4.142 3.358 7.5 7.5 7.5h18.872c4.142 0 7.5-3.358 7.5-7.5zm0 30c0-4.142-3.358-7.5-7.5-7.5h-18.872c-4.142 0-7.5 3.358-7.5 7.5 0 4.142 3.358 7.5 7.5 7.5h18.872c4.142 0 7.5-3.358 7.5-7.5zm181.936-150c0-4.142-3.358-7.5-7.5-7.5h-18.872c-4.142 0-7.5 3.358-7.5 7.5 0 4.142 3.358 7.5 7.5 7.5h18.872c4.142 0 7.5-3.358 7.5-7.5zm0 30c0-4.142-3.358-7.5-7.5-7.5h-18.872c-4.142 0-7.5 3.358-7.5 7.5 0 4.142 3.358 7.5 7.5 7.5h18.872c4.142 0 7.5-3.358 7.5-7.5zm0 30c0-4.142-3.358-7.5-7.5-7.5h-18.872c-4.142 0-7.5 3.358-7.5 7.5 0 4.142 3.358 7.5 7.5 7.5h18.872c4.142 0 7.5-3.358 7.5-7.5zm0 30c0-4.142-3.358-7.5-7.5-7.5h-18.872c-4.142 0-7.5 3.358-7.5 7.5 0 4.142 3.358 7.5 7.5 7.5h18.872c4.142 0 7.5-3.358 7.5-7.5z" fill="#a7d0fc"/><path d="m502 290v190h-210v-190z" fill="#19305c"/><path d="m413.282 435v50c0 2.761-2.239 5-5 5h-121.282c-2.761 0-5-2.239-5-5v-50c0-2.761 2.239-5 5-5h121.282c2.762 0 5 2.239 5 5zm-5-165h-121.282c-2.761 0-5 2.239-5 5v50c0 2.761 2.239 5 5 5h121.282c2.761 0 5-2.239 5-5v-50c0-2.761-2.238-5-5-5z" fill="#203e76"/><path d="m512 435v50c0 2.761-2.239 5-5 5h-111.5c-2.761 0-5-2.239-5-5v-50c0-2.761 2.239-5 5-5h111.5c2.761 0 5 2.239 5 5zm-5-165h-111.5c-2.761 0-5 2.239-5 5v50c0 2.761 2.239 5 5 5h111.5c2.761 0 5-2.239 5-5v-50c0-2.761-2.239-5-5-5zm0 80h-111.5c-2.761 0-5 2.239-5 5v50c0 2.761 2.239 5 5 5h111.5c2.761 0 5-2.239 5-5v-50c0-2.761-2.239-5-5-5z" fill="#274c91"/><path d="m476.872 292.5c5.523 0 10 4.477 10 10s-4.477 10-10 10-10-4.477-10-10 4.477-10 10-10zm-50 86c0 5.523 4.477 10 10 10s10-4.477 10-10-4.477-10-10-10-10 4.477-10 10zm40 81.5c0 5.523 4.477 10 10 10s10-4.477 10-10-4.477-10-10-10-10 4.477-10 10z" fill="#91aee2"/><path d="m436.872 292.5c5.523 0 10 4.477 10 10s-4.477 10-10 10-10-4.477-10-10 4.477-10 10-10zm30 86c0 5.523 4.477 10 10 10s10-4.477 10-10-4.477-10-10-10-10 4.477-10 10zm-40 81.5c0 5.523 4.477 10 10 10s10-4.477 10-10-4.477-10-10-10-10 4.477-10 10z" fill="#6990d7"/><path d="m398.564 415.771c0 20.451-6.38 39.412-17.258 55.001-1.174 1.683-7.714 8.017-9.823 9.441-15.355 10.368-33.862 16.422-53.784 16.422-53.146 0-96.229-43.083-96.229-96.229 0-19.902 6.042-38.393 16.392-53.739 1.433-2.125 7.55-8.515 9.105-9.611 15.658-11.034 34.756-17.515 55.368-17.515 53.146.001 96.229 43.084 96.229 96.23z" fill="#fb5858"/><path d="m381.77 470.102c-17.338 25.3-46.448 41.898-79.435 41.898-53.146 0-96.229-43.083-96.229-96.229 0-32.987 16.598-62.097 41.898-79.435-10.595 15.461-16.794 34.172-16.794 54.331 0 53.146 43.083 96.229 96.229 96.229 20.159 0 38.87-6.198 54.331-16.794z" fill="#f44545"/><path d="m418.106 415.771v.024c0 1.3-1.071 2.347-2.372 2.347h-113.398c-1.31 0-2.371-1.062-2.371-2.372v-113.398c0-1.3 1.047-2.371 2.347-2.372h.024c63.938 0 115.77 51.833 115.77 115.771z" fill="#ffc14f"/><path d="m321.3 418.142h-18.965c-1.31 0-2.371-1.062-2.371-2.372v-113.398c0-1.3 1.047-2.371 2.347-2.372h.024c5.737 0 11.376.417 16.889 1.223-.188.341-.295.733-.295 1.148v113.399c0 1.311 1.062 2.372 2.371 2.372z" fill="#ffb52d"/></g></svg>