<svg id="Layer_1" enable-background="new 0 0 512 512" viewBox="0 0 512 512" xmlns="http://www.w3.org/2000/svg"><g><path d="m98.902 438.98h308.997c50.369-44.873 82.101-110.216 82.101-182.98 0-135.31-109.69-245-245-245s-245 109.69-245 245c0 68.042 27.747 129.595 72.533 173.988.816.809 18.44 1.612 19.267 2.41 2.324 2.24 4.692 4.434 7.102 6.582z" fill="#65befc"/><path d="m84.5 31.936h420v295h-420z" fill="#0077f0"/><path d="m84.5 31.936h34v295h-34z" fill="#0066ed"/><path d="m217.5 87.5h135c4.142 0 7.5-3.358 7.5-7.5 0-4.142-3.358-7.5-7.5-7.5h-135c-4.142 0-7.5 3.358-7.5 7.5 0 4.142 3.358 7.5 7.5 7.5z" fill="#0055ca"/><path d="m217.5 117.5h95c4.142 0 7.5-3.358 7.5-7.5 0-4.142-3.358-7.5-7.5-7.5h-95c-4.142 0-7.5 3.358-7.5 7.5 0 4.142 3.358 7.5 7.5 7.5z" fill="#0055ca"/><circle cx="155" cy="95" fill="#ffc143" r="25"/><circle cx="155" cy="95" fill="#ffb509" r="15"/><path d="m159.085 211.909h-19.085c-5.523 0-10-4.477-10-10v-41.909c0-5.523 4.477-10 10-10h19.085c5.523 0 10 4.477 10 10v41.909c0 5.523-4.477 10-10 10z" fill="#00c53b"/><path d="m217.285 211.909h-59.597c-5.523 0-10-4.477-10-10v-41.909c0-5.523 4.477-10 10-10h59.597c5.523 0 10 4.477 10 10v41.909c0 5.523-4.477 10-10 10z" fill="#4bcd5c"/><path d="m273.426 211.909h-17.568c-5.523 0-10-4.477-10-10v-41.909c0-5.523 4.477-10 10-10h17.568c5.523 0 10 4.477 10 10v41.909c0 5.523-4.478 10-10 10z" fill="#ffb509"/><path d="m333.143 211.909h-59.597c-5.523 0-10-4.477-10-10v-41.909c0-5.523 4.477-10 10-10h59.597c5.523 0 10 4.477 10 10v41.909c0 5.523-4.477 10-10 10z" fill="#ffc143"/><path d="m391.085 211.909h-19.37c-5.523 0-10-4.477-10-10v-41.909c0-5.523 4.477-10 10-10h19.37c5.523 0 10 4.477 10 10v41.909c0 5.523-4.477 10-10 10z" fill="#9facba"/><path d="m449 211.909h-59.597c-5.523 0-10-4.477-10-10v-41.909c0-5.523 4.477-10 10-10h59.597c5.523 0 10 4.477 10 10v41.909c0 5.523-4.477 10-10 10z" fill="#b6c4cf"/><path d="m158.149 291.506h-18.149c-5.523 0-10-4.477-10-10v-41.909c0-5.523 4.477-10 10-10h18.149c5.523 0 10 4.477 10 10v41.909c0 5.522-4.477 10-10 10z" fill="#ffb509"/><path d="m217.285 291.506h-59.597c-5.523 0-10-4.477-10-10v-41.909c0-5.523 4.477-10 10-10h59.597c5.523 0 10 4.477 10 10v41.909c0 5.522-4.477 10-10 10z" fill="#ffc143"/><path d="m274.447 291.506h-18.589c-5.523 0-10-4.477-10-10v-41.909c0-5.523 4.477-10 10-10h18.589c5.523 0 10 4.477 10 10v41.909c0 5.522-4.477 10-10 10z" fill="#9facba"/><path d="m333.143 291.506h-59.597c-5.523 0-10-4.477-10-10v-41.909c0-5.523 4.477-10 10-10h59.597c5.523 0 10 4.477 10 10v41.909c0 5.522-4.477 10-10 10z" fill="#b6c4cf"/><path d="m392.787 291.506h-21.072c-5.523 0-10-4.477-10-10v-41.909c0-5.523 4.477-10 10-10h21.072c5.523 0 10 4.477 10 10v41.909c0 5.522-4.477 10-10 10z" fill="#00c53b"/><path d="m449 291.506h-59.597c-5.523 0-10-4.477-10-10v-41.909c0-5.523 4.477-10 10-10h59.597c5.523 0 10 4.477 10 10v41.909c0 5.522-4.477 10-10 10z" fill="#4bcd5c"/><path d="m112.362 450c3.406 2.631 6.884 5.175 10.429 7.628 1.157.801-14.689 1.591-13.517 2.372 38.853 25.902 85.526 41 135.726 41 56.35 0 108.257-19.024 149.649-51z" fill="#fa0"/><path d="m504.5 326.936h-387.447v-38.867c0-.626.507-1.133 1.133-1.133h386.314z" fill="#0055ca"/><path d="m84.5 286.936h34v40h-34z" fill="#00429c"/><path d="m347.457 425h-105.914c-8.284 0-15-6.716-15-15v-65.298c0-8.284 6.716-15 15-15h105.914c8.284 0 15 6.716 15 15v65.298c0 8.284-6.715 15-15 15z" fill="#d9e7ec"/><path d="m200.734 406.723h187.532c8.284 0 15 6.716 15 15 0 5.523-4.477 10-10 10h-197.532c-5.523 0-10-4.477-10-10 0-8.284 6.716-15 15-15z" fill="#fff"/><path d="m92 315v-275.564h405v275.564h13.075l1.925-1.894v-281.17c0-4.142-3.357-7.5-7.5-7.5h-420c-4.143 0-7.5 3.358-7.5 7.5v281.17l3.607 1.894z" fill="#003278"/><path d="m140.883 359.702h-48.883c-8.284 0-15-6.716-15-15v-31.596h41.436c19.066 0 34.521 15.456 34.521 34.521 0 6.669-5.405 12.075-12.074 12.075z" fill="#d9e7ec"/><path d="m497 359.702h-363.5c-8.284 0-15-6.716-15-15v-31.596h393.5v31.596c0 8.284-6.716 15-15 15z" fill="#fff"/><path d="m165 430h-92.479c11.234 11.137 23.541 21.193 36.752 30h55.727c2.761 0 5-2.239 5-5v-20c0-2.761-2.239-5-5-5z" fill="#ffc143"/><path d="m455 460h-320c-2.761 0-5-2.239-5-5v-20c0-2.761 2.239-5 5-5h320c2.761 0 5 2.239 5 5v20c0 2.761-2.239 5-5 5z" fill="#ffcd6b"/></g><g/><g/><g/><g/><g/><g/><g/><g/><g/><g/><g/><g/><g/><g/><g/></svg>