<svg id="Capa_1" enable-background="new 0 0 512 512" height="512" viewBox="0 0 512 512" width="512" xmlns="http://www.w3.org/2000/svg"><g><path d="m486.787 246h-482.596c.017-.435.036-.869.056-1.304.039-.868-3.908-1.734-3.859-2.6 7.208-128.84 113.968-231.096 244.612-231.096s237.404 102.256 244.612 231.097c.024.433-2.965.865-2.943 1.299.044.866.083 1.735.118 2.604z" fill="#65befc"/><path d="m490 256c0 135.31-109.69 245-245 245s-245-109.69-245-245c0-4.666.131-9.302.388-13.903h489.224c.257 4.601.388 9.237.388 13.903z" fill="#955b50"/><path d="m455 354.856h-420v-295h420z" fill="#ececf1"/><path d="m69 354.856h-34v-295h34z" fill="#d4d4da"/><path d="m455 354.856h-420v-40h420z" fill="#0077f0"/><path d="m69 354.856h-34v-40h34z" fill="#0066ed"/><path d="m462.5 59.856v281.17l-2.862 6.027h-12.138v-279.697h-405v279.697h-10.862l-4.138-6.027v-281.17c0-4.143 3.358-7.5 7.5-7.5h420c4.142 0 7.5 3.358 7.5 7.5z" fill="#434c54"/><path d="m305.255 452.92h-120.51c-8.284 0-15-6.716-15-15v-65.298c0-8.284 6.716-15 15-15h120.511c8.284 0 15 6.716 15 15v65.298c-.001 8.284-6.716 15-15.001 15z" fill="#d4d4da"/><path d="m71.926 372.622v-26.282l-2.702-5.314h-41.724v31.596c0 8.285 6.716 15 15 15h44.426c-8.285 0-15-6.715-15-15z" fill="#ececf1"/><path d="m447.5 387.622h-363.723c-8.284 0-14.777-6.716-14.777-15v-31.596h393.5v31.596c0 8.285-6.716 15-15 15zm-322.947 62.022v5c0 2.761 2.239 5 5 5h230.894c2.761 0 5-2.239 5-5v-5c0-8.284-6.716-15-15-15h-210.894c-8.284 0-15 6.715-15 15z" fill="#fff"/><path d="m60.5 282v-185c0-2.761 2.239-5 5-5h211.5c2.761 0 5 2.239 5 5v185c0 2.761-2.239 5-5 5h-211.5c-2.761 0-5-2.239-5-5zm239.5 0v-185c0-2.761 2.239-5 5-5h119.5c2.761 0 5 2.239 5 5v185c0 2.761-2.239 5-5 5h-119.5c-2.761 0-5-2.239-5-5z" fill="#93d0fd"/><path d="m337 125c0 5.523-4.477 10-10 10s-10-4.477-10-10 4.477-10 10-10 10 4.477 10 10zm-10 90c-5.523 0-10 4.477-10 10s4.477 10 10 10 10-4.477 10-10-4.477-10-10-10z" fill="#00c53b"/><path d="m345 125c0-4.142 3.358-7.5 7.5-7.5h48c4.142 0 7.5 3.358 7.5 7.5 0 4.142-3.358 7.5-7.5 7.5h-48c-4.142 0-7.5-3.358-7.5-7.5zm-19.5 36h48c4.142 0 7.5-3.358 7.5-7.5 0-4.142-3.358-7.5-7.5-7.5h-48c-4.142 0-7.5 3.358-7.5 7.5 0 4.142 3.358 7.5 7.5 7.5zm27 71.5h48c4.142 0 7.5-3.358 7.5-7.5 0-4.142-3.358-7.5-7.5-7.5h-48c-4.142 0-7.5 3.358-7.5 7.5 0 4.142 3.358 7.5 7.5 7.5zm-27 28.5h48c4.142 0 7.5-3.358 7.5-7.5 0-4.142-3.358-7.5-7.5-7.5h-48c-4.142 0-7.5 3.358-7.5 7.5 0 4.142 3.358 7.5 7.5 7.5z" fill="#0396fd"/><path d="m408 188c0 5.523-4.477 10-10 10s-10-4.477-10-10 4.477-10 10-10 10 4.477 10 10z" fill="#ffb509"/><path d="m372.5 195.5h-48c-4.142 0-7.5-3.358-7.5-7.5 0-4.142 3.358-7.5 7.5-7.5h48c4.142 0 7.5 3.358 7.5 7.5 0 4.142-3.358 7.5-7.5 7.5z" fill="#49b6fc"/><path d="m212.051 160.048c0 5.522-4.477 10-10 10h-4.333c-5.523 0-10-4.478-10-10 0-5.523 4.477-10 10-10h4.333c5.522 0 10 4.477 10 10zm52.166-77.402h-49.5c-14.912 0-27 12.088-27 27s12.088 27 27 27h49.5c14.912 0 27-12.088 27-27s-12.088-27-27-27z" fill="#49b6fc"/><path d="m137.477 256.263h-36.691v30.737h-24v-36.507c0-.002 0-.003 0-.005v-23.132c0-12.021 8.359-22.341 19.901-24.567l14.852-2.851 3.104.501 5.171-.993c.036-.007.074-.014.112-.021 10.052-1.871 17.551 5.14 17.551 15.364z" fill="#00b327"/><path d="m205.786 227.356v23.907c0 2.762-2.249 5-5.024 5h-18.476v30.737h-82v-69.961c0-.061 0-.122.001-.183.053-7.507 4.846-14.024 11.67-16.737 1.099-.438 2.252-.776 5.897.865 0 0 19.343-1.887 23.442-1.887 7.837 0 14.461 1.422 22.163 2.894l7.593-2.017 14.739 2.816c11.595 2.226 19.995 12.545 19.995 24.566z" fill="#00c53b"/><path d="m205.786 250.493v36.507h-24v-36.507c0-6.486 5.373-11.745 12-11.745s12 5.259 12 11.745z" fill="#4bcd5c"/><path d="m178.096 145.205v11.534c0 16.128-10.373 29.833-24.811 34.81v12.504c0 6.627-5.373 12-12 12s-12-5.373-12-12v-12.504c-14.438-4.977-24.811-18.682-24.811-34.81v-11.534c0-20.33 16.481-36.811 36.811-36.811 20.331.001 36.811 16.481 36.811 36.811z" fill="#bb5d4c"/><path d="m178.447 144.422v13.101c0 15.637-10.935 29.044-25.161 34.027-14.226-4.983-24-18.39-24-34.027v-13.101c0-15.637 10.179-28.902 24.405-33.885 14.227 4.983 24.756 18.248 24.756 33.885z" fill="#c96e59"/><path d="m171.051 199.973-26.203 26.203c-1.953 1.953-5.118 1.953-7.071 0l-26.238-26.238 6.081-1.247c3.673-.702 7.372-1.237 11.088-1.605h.002c4.076-.404 8.17-.607 12.27-.607 7.837 0 15.656.74 23.359 2.212z" fill="#bb5d4c"/><g fill="#fa0"><path d="m426.86 140.688c-12.302 12.302-32.246 12.302-44.548 0s-12.302-32.246 0-44.548 32.246-12.302 44.548 0 12.301 32.246 0 44.548z"/><path d="m503.227 19.773c-11.697-11.697-30.729-11.697-42.426 0s-11.697 30.729 0 42.426 30.729 11.697 42.426 0 11.697-30.729 0-42.426zm-31.82 31.82c-5.848-5.848-5.849-15.364 0-21.213s15.365-5.848 21.213 0 5.849 15.364 0 21.213c-5.848 5.848-15.364 5.848-21.213 0z"/><path d="m334.753 44.715 107.962-8.013c24.793-1.84 45.423 18.791 43.583 43.584-.199 2.681-2.33 4.812-5.012 5.011l-98.631 7.32z"/></g><path d="m359.531 69.493 107.962-8.013c.058-.004.117-.009.175-.013 10.507-.736 19.378 8.136 18.643 18.642-.004.058-.008.117-.013.175l-8.013 107.961z" fill="#ffb509"/><path d="m471.048 191.241-140.007-140.008c-3.515-3.515-3.515-9.213 0-12.728 3.515-3.515 9.213-3.515 12.728 0l140.007 140.007c3.515 3.515 3.515 9.213 0 12.728-3.514 3.515-9.213 3.515-12.728.001z" fill="#ffcd6b"/></g></svg>