<svg height="512" viewBox="0 0 512 512" width="512" xmlns="http://www.w3.org/2000/svg"><g id="Stickers"><path d="m503.457 188.618-13.91-6.063 5.375-13.679c-6.1-6.029 2.391-3.506-27.507-26.677l-13.085 5.138-5.555-12.737c-6.8-.3-8.055-4.716-38.678-.055l-5.576 12.792-6.089-2.392-.371-33.221a28.314 28.314 0 0 0 -28.026-27.863l-101.26-.6a28.284 28.284 0 0 0 -28.2 27.917c-.7 78.023-.525 58.147-.554 61.449l-37.727-.195-.314-36.286a25.125 25.125 0 0 0 -25.041-24.831l-146.025.832a25.138 25.138 0 0 0 -24.914 25.068l.054 114.84a25.1 25.1 0 0 0 26.353 25l33.093-1.711.386 124.911a28.65 28.65 0 0 0 28.6 28.486l309.959-2.116a28.391 28.391 0 0 0 28.393-28.125l.066-4.231 43.311-1.071a25.679 25.679 0 0 0 24.865-24.563l.01-.238c0-1.768 0 16.255-.023-111.711a25.565 25.565 0 0 0 -10.488-21.7l-.621-1.582q.3-.735.575-1.479l13.833-6.023c-.03-8.043 4.355-5.547-.909-37.284z" fill="#fff"/><path d="m494.8 218.617a66.611 66.611 0 0 0 -.574-22.566l-13.326-5.812a53.138 53.138 0 0 0 -2.992-6.765l5.153-13.115a66.418 66.418 0 0 0 -16.924-16.375l-13.537 5.316a55.354 55.354 0 0 0 -5.483-2.222l-5.737-13.168a66.586 66.586 0 0 0 -23.9-.036l-5.727 13.139a54.286 54.286 0 0 0 -5.593 2.247l-13.554-5.324a66.425 66.425 0 0 0 -16.876 16.277l5.141 13.078a53.226 53.226 0 0 0 -3.114 7.033l-13.334 5.8a67.029 67.029 0 0 0 -.562 22.42l12.748 5.543a53.591 53.591 0 0 0 3.591 9.256l-5.227 13.31a66.265 66.265 0 0 0 14.873 15.41l12.956-5.092a53.469 53.469 0 0 0 10.489 4.445l5.617 12.895a66.559 66.559 0 0 0 21.04-.037l5.629-12.907a54.23 54.23 0 0 0 10.367-4.432l12.931 5.092a66.079 66.079 0 0 0 14.934-15.533l-5.238-13.346a53.129 53.129 0 0 0 3.467-8.975zm-65.463 24.3a33.967 33.967 0 0 1 -33.946-33.751v-.2a33.947 33.947 0 0 1 67.893 0v.134a33.951 33.951 0 0 1 -33.944 33.817z" fill="#7ad001"/><path d="m192.414 244.332a14.551 14.551 0 0 1 -13.809 14.66l-146.74 7.573a14.569 14.569 0 0 1 -15.31-14.533l-.055-109.611v-5.206a14.577 14.577 0 0 1 14.48-14.569l145.853-.832a14.547 14.547 0 0 1 14.642 14.425l.036 4.41z" fill="#a369f7"/><path d="m191.511 140.649-175.011 1.772v-5.206a14.577 14.577 0 0 1 14.48-14.569l145.853-.832a14.547 14.547 0 0 1 14.642 14.425z" fill="#eae5db"/><circle cx="27.215" cy="133.014" fill="#ff605b" r="2.431"/><circle cx="36.089" cy="133.014" fill="#ffb020" r="2.431"/><circle cx="44.963" cy="133.014" fill="#7ad001" r="2.431"/><path d="m138.277 169.99h-29.246a2.5 2.5 0 0 1 0-5h29.246a2.5 2.5 0 0 1 0 5z" fill="#00abfe"/><path d="m92.163 169.99h-46.313a2.5 2.5 0 1 1 0-5h46.313a2.5 2.5 0 1 1 0 5z" fill="#1d1d3d"/><path d="m138.277 187.833h-56.026a2.5 2.5 0 0 1 0-5h56.026a2.5 2.5 0 0 1 0 5z" fill="#1d1d3d"/><path d="m69.006 187.833h-23.156a2.5 2.5 0 1 1 0-5h23.156a2.5 2.5 0 0 1 0 5z" fill="#ff605b"/><path d="m101.875 207.045h-56.025a2.5 2.5 0 1 1 0-5h56.025a2.5 2.5 0 0 1 0 5z" fill="#1d1d3d"/><path d="m138.277 207.045h-23.157a2.5 2.5 0 1 1 0-5h23.157a2.5 2.5 0 0 1 0 5z" fill="#ff605b"/><path d="m138.276 223.41h-53.984a2.5 2.5 0 0 1 0-5h53.984a2.5 2.5 0 0 1 0 5z" fill="#00abfe"/><path d="m388.428 189.273a17.694 17.694 0 0 1 -18 17.877l-102.671-1.789a17.691 17.691 0 0 1 -17.37-17.859c.045-5.05-.2 22.656.686-76.208a17.713 17.713 0 0 1 17.805-17.533l101.1.6a17.681 17.681 0 0 1 17.588 17.48c1.039 93.213.834 75.019.862 77.432z" fill="#ff605b"/><path d="m387.6 115.289-136.545-2.4.018-1.591a17.713 17.713 0 0 1 17.805-17.533l101.1.6a17.681 17.681 0 0 1 17.588 17.48z" fill="#eae5db"/><circle cx="262.226" cy="104.525" fill="#ff605b" r="2.431"/><circle cx="271.1" cy="104.525" fill="#ffb020" r="2.431"/><circle cx="279.974" cy="104.525" fill="#7ad001" r="2.431"/><path d="m300.346 133.083h-29.246a2.5 2.5 0 0 1 0-5h29.246a2.5 2.5 0 0 1 0 5z" fill="#00abfe"/><path d="m363.527 133.083h-46.314a2.5 2.5 0 0 1 0-5h46.314a2.5 2.5 0 0 1 0 5z" fill="#1d1d3d"/><path d="m327.125 150.925h-56.025a2.5 2.5 0 0 1 0-5h56.025a2.5 2.5 0 0 1 0 5z" fill="#1d1d3d"/><path d="m363.527 150.925h-23.157a2.5 2.5 0 0 1 0-5h23.157a2.5 2.5 0 0 1 0 5z" fill="#ffb020"/><path d="m363.527 170.139h-56.027a2.5 2.5 0 0 1 0-5h56.025a2.5 2.5 0 0 1 0 5z" fill="#1d1d3d"/><path d="m294.256 170.139h-23.156a2.5 2.5 0 0 1 0-5h23.156a2.5 2.5 0 0 1 0 5z" fill="#ffb020"/><path d="m325.084 186.5h-53.984a2.5 2.5 0 0 1 0-5h53.984a2.5 2.5 0 0 1 0 5z" fill="#00abfe"/><path d="m425.375 202.324-.072 4.826-2.965 191.188a18.054 18.054 0 0 1 -17.949 17.786l-309.8 2.115a18.086 18.086 0 0 1 -18.2-18.021l-.6-193.068-.018-6.652a18.052 18.052 0 0 1 18.148-18.13l313.489 1.632a18.057 18.057 0 0 1 17.967 18.324z" fill="#7ad001"/><rect fill="#a369f7" height="12.136" rx="3.357" width="144.606" x="259.28" y="240.555"/><rect fill="#ff605b" height="12.136" rx="3.357" width="144.606" x="259.28" y="280.294"/><rect fill="#a369f7" height="12.136" rx="3.357" width="144.606" x="259.28" y="325.484"/><rect fill="#ff605b" height="12.136" rx="3.357" width="144.606" x="259.28" y="366.901"/><g fill="#fff"><path d="m141.993 352.214a2.5 2.5 0 0 1 -2.028-1.036 397.058 397.058 0 0 0 -33.988-40.918 2.5 2.5 0 0 1 -.289-3.078l32.151-49.841a2.5 2.5 0 1 1 4.2 2.71l-31.087 48.192a402.21 402.21 0 0 1 33.064 40.007 2.5 2.5 0 0 1 -2.024 3.964z"/><path d="m155.627 353.188a2.5 2.5 0 0 1 -2.358-3.33c5.116-14.532 9.052-28.45 12.858-41.91 4.694-16.6 9.548-33.765 16.564-51.738a2.5 2.5 0 0 1 4.658 1.819c-6.928 17.747-11.534 34.035-16.411 51.28-3.827 13.534-7.784 27.529-12.953 42.209a2.5 2.5 0 0 1 -2.358 1.67z"/><path d="m185.02 356a2.5 2.5 0 0 1 -1.838-4.195c7.361-7.983 15.108-14.177 22.6-20.168 8.079-6.46 15.732-12.579 22.98-20.779-1.532-2.959-3.153-6.14-4.84-9.453-7.743-15.2-16.519-32.433-24.909-44.237a2.5 2.5 0 1 1 4.075-2.9c8.6 12.1 17.468 29.508 25.289 44.864 1.971 3.869 3.85 7.559 5.6 10.923a2.5 2.5 0 0 1 -.317 2.782c-7.882 9.2-16.462 16.066-24.76 22.7-7.346 5.874-14.942 11.947-22.046 19.651a2.493 2.493 0 0 1 -1.834.812z"/></g><path d="m425.375 202.324-.072 4.826h-349.513l-.018-6.652a18.052 18.052 0 0 1 18.148-18.13l313.488 1.632a18.057 18.057 0 0 1 17.967 18.324z" fill="#eae5db"/><circle cx="92.063" cy="195.809" fill="#ff605b" r="4.309"/><circle cx="107.789" cy="195.809" fill="#ffb020" r="4.309"/><circle cx="123.514" cy="195.809" fill="#7ad001" r="4.309"/><path d="m490.575 256.255-.434 7.382.447 104.568a15.105 15.105 0 0 1 -14.66 14.5l-97.256 2.4a15.143 15.143 0 0 1 -15.491-13.9l.556-107.659-.506-6.291a15.114 15.114 0 0 1 14.5-16.3l97.194-.387a15.1 15.1 0 0 1 15.65 15.687z" fill="#ffb020"/><path d="m490.575 256.255-.434 7.382-126.4-.09-.506-6.291a15.114 15.114 0 0 1 14.5-16.3l97.194-.387a15.1 15.1 0 0 1 15.646 15.686z" fill="#eae5db"/><circle cx="373.549" cy="252.691" fill="#ff605b" r="2.431"/><circle cx="382.423" cy="252.691" fill="#ffb020" r="2.431"/><circle cx="391.297" cy="252.691" fill="#7ad001" r="2.431"/><path d="m410.017 300.1h-29.246a2.5 2.5 0 1 1 0-5h29.246a2.5 2.5 0 1 1 0 5z" fill="#00abfe"/><path d="m473.2 300.1h-46.316a2.5 2.5 0 0 1 0-5h46.316a2.5 2.5 0 0 1 0 5z" fill="#1d1d3d"/><path d="m436.8 317.938h-56.029a2.5 2.5 0 0 1 0-5h56.029a2.5 2.5 0 0 1 0 5z" fill="#1d1d3d"/><path d="m473.2 317.938h-23.158a2.5 2.5 0 0 1 0-5h23.158a2.5 2.5 0 0 1 0 5z" fill="#ff605b"/><path d="m473.2 337.151h-56.027a2.5 2.5 0 0 1 0-5h56.027a2.5 2.5 0 0 1 0 5z" fill="#1d1d3d"/><path d="m403.928 337.151h-23.157a2.5 2.5 0 0 1 0-5h23.157a2.5 2.5 0 0 1 0 5z" fill="#ff605b"/><path d="m434.756 353.515h-53.985a2.5 2.5 0 0 1 0-5h53.985a2.5 2.5 0 0 1 0 5z" fill="#00abfe"/></g></svg>